<?xml version="1.0" standalone="no"?>
<!DOCTYPE svg PUBLIC "-//W3C//DTD SVG 20010904//EN"
 "http://www.w3.org/TR/2001/REC-SVG-20010904/DTD/svg10.dtd">
<svg version="1.0" xmlns="http://www.w3.org/2000/svg"
 width="1254.000000pt" height="1254.000000pt" viewBox="0 0 1254.000000 1254.000000"
 preserveAspectRatio="xMidYMid meet">

<g transform="translate(0.000000,1254.000000) scale(0.100000,-0.100000)"
fill="#000000" stroke="none">
<path d="M5922 12500 c-670 -40 -1286 -174 -1862 -407 -1182 -478 -2134 -1310
-2850 -2493 -81 -134 -282 -527 -354 -693 -298 -683 -470 -1372 -538 -2147
-17 -193 -17 -873 0 -1045 27 -267 44 -404 68 -550 160 -957 520 -1832 1069
-2600 665 -929 1604 -1658 2700 -2097 898 -360 1880 -498 2790 -392 1172 135
2258 624 3175 1428 727 638 1302 1479 1675 2451 210 548 334 1076 397 1685 30
294 33 989 5 1260 -139 1369 -650 2594 -1505 3610 -137 163 -501 525 -670 668
-567 478 -1190 826 -1887 1054 -405 132 -811 213 -1300 258 -155 15 -728 21
-913 10z m778 -320 c446 -28 923 -121 1355 -265 519 -173 1048 -449 1483 -772
896 -668 1559 -1573 1976 -2698 180 -485 301 -1014 363 -1585 33 -305 21
-1204 -18 -1308 l-9 -22 -1211 2 -1212 3 -56 93 c-132 217 -302 419 -469 556
-234 191 -655 412 -1044 548 -54 19 -93 38 -99 50 -5 10 -23 101 -40 201 -16
100 -34 194 -40 209 -7 17 -27 34 -50 45 -35 16 -39 22 -39 56 0 56 14 77 54
77 101 0 271 92 366 198 228 253 252 603 55 779 l-55 50 27 71 c16 41 34 72
42 72 8 0 57 -14 110 -32 90 -30 105 -32 241 -32 110 0 161 4 209 18 146 40
272 118 387 238 88 92 136 161 193 273 95 190 135 352 135 545 1 145 -11 202
-64 317 -66 143 -147 231 -311 341 -140 93 -183 167 -229 394 -36 174 -61 260
-106 354 -82 174 -195 294 -350 372 -91 46 -181 70 -310 82 -75 7 -134 18
-163 31 -56 24 -117 82 -178 169 -26 36 -69 92 -97 124 -271 317 -730 384
-1104 161 -45 -27 -108 -70 -139 -95 l-57 -46 -85 24 c-107 29 -271 39 -367
23 -306 -54 -543 -296 -635 -647 -31 -116 -34 -372 -6 -501 55 -259 177 -484
351 -651 36 -35 66 -66 66 -70 0 -3 -34 -73 -76 -156 -58 -114 -90 -166 -134
-213 -113 -121 -148 -308 -90 -478 18 -53 18 -62 4 -227 -21 -234 -41 -320
-119 -502 -74 -174 -105 -283 -105 -368 0 -32 -3 -58 -6 -58 -3 0 -33 14 -65
31 -54 29 -98 70 -140 130 l-16 24 -21 -35 c-92 -150 -19 -399 156 -533 46
-36 61 -54 66 -80 4 -19 28 -58 57 -93 28 -32 61 -79 74 -104 12 -25 39 -60
59 -78 20 -18 45 -51 57 -75 36 -71 140 -239 182 -295 l40 -52 -14 -53 -14
-52 -95 -32 c-230 -79 -333 -119 -458 -178 -392 -188 -661 -410 -983 -810 -57
-71 -77 -90 -98 -90 -23 0 -27 6 -44 65 -70 256 -119 661 -87 721 6 10 50 39
98 63 108 54 190 116 274 205 82 86 111 129 192 279 36 66 92 161 125 211 69
105 79 143 80 289 1 57 3 108 6 113 3 5 6 40 6 77 0 102 -35 172 -103 208 -25
13 -28 20 -28 67 -1 83 -26 124 -126 205 -49 39 -114 92 -144 117 -62 51 -190
118 -263 136 -64 16 -131 6 -219 -30 -40 -17 -76 -31 -81 -31 -5 0 -6 19 -2
43 13 77 73 215 139 318 101 157 130 257 106 359 -33 137 -190 205 -323 141
-54 -26 -133 -95 -168 -145 -13 -20 -26 -36 -29 -36 -3 0 -11 20 -18 44 -34
127 -174 190 -297 132 -93 -43 -157 -133 -220 -309 l-32 -88 -34 57 c-43 72
-97 104 -176 104 -97 0 -174 -60 -209 -162 -16 -45 -19 -82 -18 -243 0 -256
24 -383 129 -706 56 -171 63 -207 90 -464 27 -254 75 -447 149 -594 20 -39 36
-84 36 -100 0 -16 -20 -118 -44 -228 -85 -378 -146 -698 -146 -763 0 -19 6
-20 105 -20 l105 0 0 43 c0 61 54 418 100 667 49 258 47 252 68 246 76 -23
172 -33 172 -18 -1 4 -32 28 -70 55 -79 54 -137 122 -184 217 -79 156 -112
304 -141 620 -16 170 -19 181 -86 388 -102 314 -122 423 -123 654 -1 174 0
188 20 215 25 34 56 40 89 19 32 -21 61 -119 75 -256 22 -208 60 -351 130
-490 46 -91 59 -105 85 -87 22 17 22 42 -1 142 -29 124 -27 404 4 545 47 206
116 364 175 401 43 25 53 24 88 -10 40 -41 38 -76 -15 -284 -55 -215 -68 -313
-56 -439 15 -157 44 -248 78 -248 33 0 42 22 42 100 0 278 92 544 272 784 81
108 160 144 208 96 43 -43 18 -128 -83 -283 -70 -107 -103 -181 -133 -297 -32
-123 -50 -295 -35 -333 14 -35 58 -54 86 -36 97 62 172 103 239 129 l79 32 46
-18 c90 -34 177 -83 236 -136 34 -29 84 -70 112 -91 57 -41 70 -65 53 -96 -27
-52 -94 -65 -165 -32 -42 19 -159 93 -209 132 l-29 23 -21 -27 c-12 -14 -48
-38 -80 -53 -55 -25 -63 -26 -105 -15 -25 7 -60 23 -78 37 -17 13 -36 24 -42
24 -7 0 -11 -27 -11 -71 0 -91 -24 -143 -100 -212 -67 -62 -139 -96 -228 -108
-37 -5 -73 -11 -80 -14 -9 -3 8 -30 48 -77 193 -229 251 -534 143 -751 -13
-27 -23 -51 -20 -53 2 -2 29 22 60 54 57 61 59 64 111 252 56 199 252 297 456
226 l44 -15 67 72 c37 40 85 86 108 101 l41 29 0 71 c0 83 12 131 43 176 51
75 130 98 170 49 17 -21 19 -33 13 -104 -4 -44 -11 -123 -15 -176 -7 -96 -8
-97 -67 -190 -33 -52 -92 -150 -130 -219 -58 -105 -84 -140 -169 -226 -115
-117 -198 -170 -325 -209 -47 -15 -92 -30 -100 -34 -25 -13 -32 -70 -33 -281
0 -212 17 -375 62 -577 10 -45 16 -85 13 -88 -3 -3 -657 -5 -1453 -5 l-1448 0
-5 33 c-29 173 -43 698 -27 992 47 878 257 1687 642 2470 463 944 1161 1742
2011 2299 776 508 1716 808 2698 859 145 8 573 6 720 -3z m360 -356 c162 -38
303 -144 421 -316 130 -191 214 -249 385 -269 255 -29 303 -42 407 -113 34
-23 84 -69 110 -102 90 -110 127 -213 192 -524 48 -227 114 -329 295 -450 230
-154 312 -308 297 -560 -9 -162 -59 -287 -153 -389 -268 -290 -774 -100 -860
322 l-16 78 37 44 c20 25 41 45 46 45 5 0 9 6 9 13 0 9 -38 12 -157 12 -138 0
-168 3 -233 23 -193 61 -337 180 -423 352 -26 52 -53 121 -60 153 -11 54 -10
62 11 100 27 50 17 60 -48 49 -25 -4 -119 -7 -210 -6 -148 1 -174 4 -253 28
-147 44 -255 106 -361 205 -94 90 -175 222 -211 344 -9 31 -20 57 -24 57 -17
0 -36 -97 -35 -175 0 -95 29 -199 80 -293 28 -51 31 -62 17 -58 -246 71 -291
81 -378 81 -79 0 -97 -4 -142 -27 -91 -49 -134 -129 -136 -260 -1 -43 -4 -78
-7 -78 -15 0 -84 68 -133 132 -150 197 -222 415 -220 668 2 186 43 323 141
468 113 165 304 260 502 249 106 -6 169 -25 250 -78 l63 -40 67 69 c119 123
253 205 394 242 89 24 246 26 336 4z m-585 -1619 c218 -50 451 -146 671 -276
l102 -60 41 -85 c68 -141 134 -228 303 -395 l158 -157 -106 -218 c-58 -120
-107 -220 -109 -222 -2 -3 -44 32 -92 77 -509 466 -1169 780 -1700 808 l-122
6 16 31 c65 127 244 428 272 458 53 56 111 69 296 64 119 -2 175 -9 270 -31z
m-650 -685 c403 -47 862 -243 1255 -536 75 -56 90 -72 85 -89 -3 -11 -8 -56
-11 -100 -8 -105 13 -210 64 -312 22 -43 38 -82 37 -88 -65 -268 -87 -376 -81
-400 10 -40 58 -80 123 -105 56 -21 57 -21 82 -2 17 12 44 61 76 137 49 114
50 116 53 76 2 -23 4 -41 6 -41 1 0 25 22 52 48 108 104 246 137 342 82 151
-86 136 -338 -29 -515 -106 -112 -241 -169 -347 -145 -32 7 -67 23 -86 41 -31
27 -34 28 -48 11 -8 -9 -23 -39 -33 -67 -111 -308 -334 -556 -630 -701 -120
-58 -236 -93 -415 -123 -262 -44 -380 -38 -517 29 -94 46 -163 115 -261 259
-56 82 -142 230 -142 245 0 3 37 -13 82 -36 81 -43 83 -43 182 -42 92 0 111 4
211 41 152 55 222 67 319 54 301 -42 537 42 626 224 21 41 25 65 25 136 0 58
-4 91 -14 102 -12 16 -17 14 -49 -14 -100 -88 -268 -102 -402 -34 -70 36 -96
70 -128 170 -38 118 -53 146 -102 188 -40 34 -80 53 -80 37 0 -4 9 -29 21 -55
25 -56 20 -101 -15 -134 -23 -22 -27 -22 -98 -11 -63 9 -87 8 -149 -6 -160
-35 -237 -29 -301 24 -60 51 -76 145 -36 228 11 25 62 92 112 147 228 254 258
299 271 408 13 104 -37 245 -107 302 -83 67 -212 36 -264 -64 -24 -47 -16 -49
37 -13 63 42 105 44 149 8 17 -15 38 -40 46 -57 15 -28 15 -29 -2 -22 -11 5
-37 10 -60 13 -33 3 -46 -1 -70 -22 -26 -24 -27 -27 -11 -37 9 -5 24 -24 33
-40 14 -28 14 -33 -1 -55 -20 -31 -39 -30 -71 1 -14 14 -26 25 -28 25 -11 0
-28 -99 -24 -144 5 -61 46 -135 79 -143 27 -8 24 -14 -28 -53 -159 -119 -248
-284 -214 -397 5 -18 6 -35 2 -37 -4 -3 -38 -8 -76 -12 l-68 -7 6 86 c7 95 33
182 102 337 68 155 82 221 130 607 8 67 15 126 15 133 0 6 24 22 53 35 89 42
167 29 271 -46 78 -56 116 -26 116 92 0 127 -46 225 -124 260 -52 24 -174 25
-239 3 -63 -21 -121 -86 -144 -161 l-18 -58 -3 60 c-2 37 3 75 13 101 59 155
186 204 450 174z m-1934 -1820 c37 -22 79 -44 94 -50 25 -10 26 -12 12 -33
-16 -24 -37 -112 -37 -155 -1 -52 -87 -122 -150 -122 -99 0 -187 102 -177 205
3 28 16 72 29 99 19 41 32 53 73 72 28 13 59 23 69 23 11 1 50 -17 87 -39z
m3399 -822 c13 -74 2 -187 -29 -289 -79 -254 -381 -464 -806 -559 -113 -25
-141 -40 -74 -40 137 0 388 50 544 108 237 88 457 220 643 386 41 35 87 68
103 71 35 8 105 -14 314 -97 390 -156 714 -360 916 -576 100 -108 259 -318
259 -344 0 -5 -889 -8 -1975 -8 -1964 0 -1975 0 -1975 20 0 21 89 287 135 405
43 108 34 106 226 74 180 -30 359 -49 469 -49 80 0 90 9 72 65 -12 40 10 351
27 383 19 36 42 45 168 63 156 23 270 51 393 96 192 72 322 148 470 278 47 41
90 74 96 75 7 0 17 -28 24 -62z m-1608 -288 c35 -21 71 -45 82 -52 15 -11 24
-50 47 -203 16 -105 31 -196 34 -204 9 -23 -64 -5 -110 27 -76 53 -117 170
-131 375 -5 69 -4 97 4 97 6 0 40 -18 74 -40z m-196 -193 c13 -67 48 -148 84
-195 11 -14 19 -27 17 -29 -2 -2 -51 6 -108 17 -121 23 -159 25 -182 8 -21
-16 -115 -246 -192 -473 -32 -93 -63 -176 -68 -182 -7 -10 -114 -13 -473 -13
-255 0 -464 3 -464 8 0 15 135 179 224 271 227 235 510 423 826 549 143 57
303 112 315 109 5 -2 15 -33 21 -70z m1017 -1212 c219 -46 335 -170 362 -388
6 -44 4 -58 -6 -62 -21 -7 -302 -35 -307 -30 -2 2 -8 25 -13 50 -16 87 -68
132 -163 142 -109 11 -194 -39 -221 -130 -12 -39 -15 -107 -15 -306 0 -265 6
-313 43 -365 40 -57 153 -82 249 -56 47 13 96 69 104 119 11 67 5 65 173 43
84 -11 155 -22 158 -26 12 -12 -19 -145 -47 -205 -89 -187 -337 -277 -621
-227 -208 37 -341 168 -385 376 -13 61 -15 131 -12 375 4 276 6 305 26 366 58
176 201 297 385 328 82 14 216 12 290 -4z m1255 -1 c205 -42 335 -166 387
-369 12 -47 16 -122 16 -345 1 -260 -1 -292 -20 -365 -67 -251 -284 -390 -581
-372 -276 17 -447 159 -495 411 -21 109 -21 533 0 643 39 206 182 353 385 397
88 19 215 19 308 0z m-5663 -26 c3 -13 46 -207 96 -433 50 -225 93 -412 95
-414 2 -2 7 9 10 25 3 16 52 211 108 434 l101 405 150 0 150 0 92 -370 c51
-203 97 -396 104 -427 6 -32 15 -58 19 -58 6 0 45 168 160 680 16 74 32 145
35 158 5 22 7 22 175 22 93 0 171 -3 174 -8 2 -4 -75 -325 -172 -712 l-177
-705 -177 -3 c-162 -2 -177 -1 -182 15 -3 10 -44 171 -91 358 -48 187 -91 358
-97 380 -7 28 -12 35 -18 25 -4 -8 -49 -177 -99 -375 -50 -198 -96 -370 -101
-383 -10 -22 -11 -22 -182 -20 l-173 3 -176 705 c-97 388 -175 708 -172 713 2
4 80 7 173 7 168 0 170 0 175 -22z m2513 -125 l-3 -148 -257 -3 -258 -2 0
-135 0 -135 220 0 221 0 -3 -142 -3 -143 -217 -3 -218 -2 0 -135 0 -135 263
-2 262 -3 0 -145 0 -145 -430 0 -430 0 -3 700 c-1 385 0 706 3 713 3 9 99 12
430 12 l426 0 -3 -147z m570 -420 l2 -563 240 0 241 0 -3 -147 -3 -148 -405 0
-405 0 -3 700 c-1 385 0 706 3 713 3 10 43 12 167 10 l163 -3 3 -562z m3696
321 c61 -132 133 -288 160 -347 27 -59 51 -107 55 -107 3 0 27 47 53 103 174
382 259 564 268 580 9 15 29 17 190 17 l180 0 -2 -712 -3 -713 -157 -3 -158
-3 -2 368 c-1 203 -2 380 -1 395 1 16 -2 26 -6 23 -7 -4 -70 -140 -195 -420
l-62 -140 -105 -3 -105 -3 -124 281 c-68 155 -127 283 -132 286 -4 3 -8 -173
-8 -390 l0 -396 -160 0 -160 0 0 715 0 715 182 -2 182 -3 110 -241z m2014 99
l-3 -148 -258 -3 -258 -2 3 -133 3 -132 218 -3 217 -2 0 -145 0 -145 -220 0
-220 0 0 -135 0 -135 263 -2 262 -3 0 -145 0 -145 -430 0 -430 0 -3 700 c-1
385 0 706 3 713 3 9 99 12 430 12 l426 0 -3 -147z m-7472 -1695 c294 -422 652
-747 1118 -1013 782 -448 1786 -571 2653 -325 266 75 433 141 678 269 475 247
883 600 1198 1039 l81 112 1028 0 c565 0 1028 -2 1028 -5 0 -3 -19 -42 -41
-88 -175 -348 -451 -754 -743 -1092 -106 -122 -378 -396 -506 -509 -881 -777
-1958 -1248 -3120 -1363 -211 -21 -696 -23 -900 -4 -442 41 -842 123 -1260
261 -288 94 -478 172 -755 309 -268 133 -445 234 -675 386 -753 497 -1391
1178 -1788 1911 -77 142 -94 179 -85 188 4 3 462 6 1019 6 l1012 0 58 -82z
m1255 77 c3 -2 -5 -64 -18 -137 -24 -147 -57 -401 -73 -578 -6 -63 -13 -116
-15 -118 -6 -6 -118 63 -217 133 -270 195 -497 418 -639 629 -21 32 -39 62
-39 67 0 9 992 13 1001 4z m4139 -1 c0 -12 -89 -135 -182 -250 -232 -289 -622
-576 -1040 -766 -162 -73 -440 -167 -603 -203 -592 -132 -1233 -97 -1811 99
-166 56 -423 170 -438 194 -19 31 72 823 105 908 l9 24 1980 0 c1089 0 1980
-2 1980 -6z"/>
<path d="M5124 9475 c-473 -140 -923 -409 -1300 -778 -131 -127 -132 -129
-173 -229 -23 -55 -40 -102 -39 -104 2 -2 28 4 58 13 43 12 66 14 103 6 l49
-10 51 56 c242 260 536 476 872 641 99 49 235 107 303 131 l122 42 0 33 c0 46
19 130 41 181 22 51 23 50 -87 18z"/>
<path d="M8867 8501 c-16 -10 -61 -31 -100 -47 -40 -15 -74 -29 -76 -31 -2 -1
43 -51 99 -110 368 -385 651 -880 816 -1428 103 -343 148 -655 148 -1032 l1
-262 110 -3 c61 -2 112 -2 114 -1 2 2 4 110 5 240 1 482 -65 877 -220 1316
-153 432 -374 818 -682 1187 -67 80 -171 190 -180 190 -4 0 -20 -9 -35 -19z"/>
<path d="M6422 9223 c-31 -6 -138 -136 -156 -191 -23 -65 -20 -99 9 -127 23
-24 30 -25 137 -25 121 0 200 -15 278 -52 44 -21 168 -138 222 -208 l26 -35
21 21 c14 13 27 47 37 98 20 97 10 176 -34 270 -37 78 -85 127 -164 167 -98
49 -309 96 -376 82z"/>
<path d="M6518 8591 c58 -20 87 -43 108 -83 22 -42 17 -51 -16 -28 -44 31
-137 60 -195 60 -65 0 -146 -46 -189 -108 -26 -37 -28 -44 -15 -56 10 -10 27
-12 69 -6 88 12 182 -11 221 -56 9 -11 31 -47 48 -81 36 -72 43 -78 71 -61 35
22 70 108 77 186 5 63 3 77 -20 124 -14 29 -42 69 -61 87 -31 30 -43 35 -93
38 l-58 3 53 -19z"/>
<path d="M6846 8210 c-76 -30 -82 -39 -56 -90 26 -51 89 -140 99 -140 27 0 14
49 -21 87 -31 33 -15 39 43 15 52 -22 69 -21 69 2 0 18 -38 42 -88 56 -23 6
-42 13 -42 15 0 3 18 12 40 21 27 11 40 22 40 35 0 24 -21 24 -84 -1z"/>
<path d="M7764 8030 c-41 -9 -92 -41 -125 -77 -38 -41 -79 -105 -73 -115 3 -4
24 3 48 17 47 27 76 31 94 13 18 -18 14 -69 -8 -103 -29 -43 -25 -48 20 -25
104 53 174 177 144 255 -5 13 -56 47 -66 44 -2 -1 -17 -4 -34 -9z"/>
<path d="M5605 5889 c-42 -12 -85 -59 -95 -103 -18 -83 34 -155 118 -164 71
-6 119 19 144 76 34 76 9 145 -66 182 -46 22 -56 23 -101 9z"/>
<path d="M7043 5870 c-46 -28 -66 -72 -60 -134 4 -41 10 -55 41 -83 31 -28 43
-33 87 -33 59 0 99 20 124 63 37 63 15 155 -45 191 -38 22 -108 20 -147 -4z"/>
<path d="M7530 4889 c-54 -17 -91 -48 -114 -98 -19 -42 -21 -66 -24 -298 -4
-301 3 -350 57 -404 44 -45 105 -63 182 -56 87 8 132 36 166 104 l28 58 0 265
c0 285 -4 314 -52 371 -14 16 -38 36 -54 45 -38 19 -144 26 -189 13z"/>
<path d="M1675 3195 c90 -207 250 -465 396 -640 96 -115 397 -425 413 -425 6
0 -12 24 -40 53 -165 170 -463 567 -680 905 -112 172 -125 188 -89 107z"/>
<path d="M10819 3198 c-202 -323 -496 -727 -703 -966 -48 -57 -86 -105 -84
-108 8 -8 290 288 401 420 131 157 235 317 342 527 87 172 106 225 44 127z"/>
<path d="M9652 3036 c-23 -30 -42 -59 -42 -64 0 -5 51 -55 114 -110 62 -56
119 -108 125 -116 14 -17 21 -18 -202 45 -76 21 -144 39 -152 39 -15 0 -107
-99 -103 -111 3 -9 304 -295 416 -396 l73 -66 49 48 c28 27 50 55 50 61 0 6
-54 63 -121 125 -67 62 -117 115 -111 117 5 1 90 -18 188 -44 l179 -46 38 43
c68 79 84 54 -195 304 -139 124 -255 225 -258 225 -3 0 -24 -24 -48 -54z"/>
<path d="M2675 2966 c-38 -17 -90 -72 -104 -109 -17 -45 -13 -94 16 -208 26
-102 27 -107 10 -133 -48 -72 -143 17 -105 97 l15 32 -51 38 c-28 21 -57 36
-65 35 -8 -2 -25 -23 -39 -48 -42 -79 -17 -180 64 -264 98 -101 238 -99 313 4
44 61 48 110 17 230 -33 129 -33 155 0 176 24 16 27 16 52 -3 29 -21 42 -77
23 -96 -17 -17 -14 -22 45 -61 46 -31 58 -35 70 -25 44 36 57 128 29 197 -20
46 -78 108 -127 133 -43 22 -119 24 -163 5z"/>
<path d="M2966 2479 c-62 -129 -132 -273 -154 -321 l-41 -88 67 -55 c55 -45
68 -52 81 -42 9 6 71 58 139 115 68 57 126 102 128 99 3 -2 -27 -77 -67 -166
-39 -89 -68 -168 -65 -176 3 -8 33 -35 67 -60 l62 -46 31 29 c17 16 132 120
256 232 124 112 226 207 228 211 4 8 -109 89 -124 89 -5 0 -76 -63 -157 -141
-81 -77 -147 -138 -147 -134 0 12 89 214 132 299 44 88 44 88 -32 141 l-39 27
-155 -131 c-85 -72 -157 -131 -159 -131 -3 0 19 46 49 103 30 56 74 139 96
184 l42 82 -24 27 c-14 14 -42 40 -63 56 l-38 30 -113 -233z"/>
<path d="M9147 2517 l-68 -62 71 -149 c39 -82 105 -223 146 -315 41 -91 78
-169 83 -174 9 -9 121 78 121 94 0 5 -12 33 -26 61 l-26 52 33 28 c19 16 49
40 66 54 l33 26 50 -37 50 -37 57 56 c38 35 54 58 48 64 -19 19 -546 393 -558
397 -6 2 -43 -24 -80 -58z m228 -223 c47 -36 85 -69 85 -74 0 -8 -64 -60 -74
-60 -3 0 -28 45 -56 100 -28 55 -48 100 -45 100 2 0 43 -30 90 -66z"/>
<path d="M8794 2256 c-89 -41 -141 -132 -127 -220 9 -56 60 -126 113 -154 43
-23 51 -24 163 -17 136 7 157 -1 157 -61 0 -58 -62 -82 -121 -47 l-29 17 -48
-47 -47 -48 41 -39 c76 -71 147 -76 244 -17 135 80 154 244 42 353 -48 46
-113 60 -220 45 -91 -12 -124 -5 -142 30 -28 51 36 98 91 67 26 -16 28 -15 73
31 l46 47 -32 31 c-61 59 -122 67 -204 29z"/>
<path d="M3682 2058 c-185 -328 -262 -467 -262 -475 0 -7 114 -80 257 -165
l63 -36 35 58 c19 32 35 62 35 66 0 5 -41 34 -90 64 -49 30 -90 59 -90 64 0 4
12 30 26 57 30 54 22 55 125 -7 31 -19 61 -34 66 -34 10 0 69 117 62 124 -2 2
-35 23 -74 46 -38 23 -71 44 -73 45 -4 4 47 105 53 105 2 0 42 -22 89 -50 47
-27 88 -50 93 -50 13 0 75 122 66 131 -10 9 -301 179 -307 179 -3 0 -36 -55
-74 -122z"/>
<path d="M8395 1997 c-49 -20 -215 -107 -215 -113 0 -3 70 -147 155 -320 l155
-314 70 35 71 36 -56 107 c-50 95 -54 108 -40 119 14 9 33 -2 117 -73 l101
-84 68 38 c38 20 67 42 66 47 -2 6 -50 47 -108 92 -84 66 -104 86 -101 105 1
13 5 43 8 68 11 87 -56 209 -137 250 -43 22 -108 25 -154 7z m98 -157 c33 -26
51 -79 38 -113 -8 -22 -55 -57 -75 -57 -7 0 -76 136 -76 148 0 9 58 40 76 41
6 1 23 -8 37 -19z"/>
<path d="M4013 1643 c-72 -170 -133 -314 -135 -322 -2 -10 51 -40 162 -92 91
-43 168 -79 171 -79 6 0 59 122 59 135 0 3 -43 25 -95 49 -52 25 -95 50 -95
56 0 12 41 110 46 110 1 0 37 -16 80 -35 42 -19 80 -35 85 -35 4 0 17 20 28
44 39 89 42 82 -53 126 l-86 39 21 48 c11 26 23 51 27 55 4 3 49 -13 100 -38
l93 -43 23 52 c40 91 40 93 4 107 -18 8 -91 40 -161 72 -70 32 -131 58 -135
58 -4 0 -67 -138 -139 -307z"/>
<path d="M7915 1780 c-38 -16 -73 -31 -77 -32 -7 -3 7 -139 57 -548 8 -69 15
-137 15 -152 0 -15 4 -29 9 -32 12 -8 146 48 145 60 -1 5 -5 33 -9 62 l-7 52
56 25 c95 42 98 42 130 -10 16 -25 33 -48 37 -51 10 -6 139 52 139 63 0 12
-405 587 -416 589 -5 2 -40 -10 -79 -26z m197 -401 c-10 -10 -83 -32 -88 -27
-3 4 -33 198 -34 222 0 5 29 -35 64 -90 35 -54 61 -102 58 -105z"/>
<path d="M4531 1762 c-15 -29 -43 -123 -39 -128 3 -2 29 -13 59 -23 30 -10 53
-23 53 -27 -1 -5 -39 -125 -84 -267 -45 -142 -80 -260 -78 -261 10 -7 122 -46
132 -46 8 0 27 45 45 108 99 328 124 408 131 415 3 4 32 -2 63 -12 31 -11 58
-17 61 -13 14 24 38 134 30 141 -5 4 -89 35 -186 69 -160 55 -179 59 -187 44z"/>
<path d="M7530 1646 c-74 -23 -141 -44 -149 -47 -12 -4 31 -173 165 -647 12
-42 19 -52 32 -48 109 30 132 37 132 39 0 2 -16 58 -35 126 -19 67 -35 129
-35 136 0 9 28 22 75 36 55 16 75 27 75 39 0 14 -29 121 -34 127 -1 1 -37 -9
-81 -23 -43 -14 -81 -21 -85 -17 -4 4 -14 34 -23 65 l-15 58 86 26 c48 15 90
30 94 33 4 4 -2 37 -13 74 -15 50 -24 67 -37 66 -9 -1 -78 -20 -152 -43z"/>
<path d="M5075 1603 c-56 -10 -69 -16 -105 -49 -28 -25 -44 -52 -55 -87 -33
-112 -13 -167 104 -283 61 -61 81 -87 81 -107 0 -32 -32 -67 -61 -67 -28 0
-79 53 -79 83 0 29 -20 37 -92 37 l-48 0 0 -52 c1 -105 64 -183 171 -208 143
-34 265 63 263 210 -1 74 -21 109 -120 211 -52 54 -84 95 -84 108 0 24 33 61
54 61 28 0 66 -41 66 -71 0 -28 1 -29 55 -30 30 -1 61 -2 68 -3 14 -1 21 53
12 101 -15 83 -140 162 -230 146z"/>
<path d="M6776 1494 c-49 -8 -92 -16 -95 -19 -6 -7 79 -707 88 -717 11 -13
248 29 296 52 54 26 92 72 111 136 18 61 18 129 -2 244 -31 181 -71 255 -158
296 -59 27 -105 29 -240 8z m197 -173 c29 -34 57 -168 57 -268 0 -78 -24 -111
-86 -120 -48 -6 -43 -21 -69 192 -9 72 -20 149 -25 172 -4 23 -5 45 -2 48 3 3
27 5 53 5 40 0 51 -4 72 -29z"/>
<path d="M5627 1130 c-65 -194 -117 -353 -115 -355 2 -2 37 -6 79 -10 l75 -7
19 61 c20 68 15 66 123 55 67 -7 66 -6 77 -85 l6 -47 75 -7 c42 -4 78 -5 80
-2 5 4 -121 726 -128 732 -2 2 -41 7 -88 10 l-85 7 -118 -352z m208 19 c20
-143 23 -132 -30 -126 -26 2 -48 7 -50 9 -3 3 9 55 26 117 18 61 33 110 35
108 2 -2 11 -51 19 -108z"/>
<path d="M6463 1463 c-23 -4 -23 -5 -17 -156 3 -84 7 -164 9 -179 3 -16 1 -28
-3 -28 -4 1 -46 82 -94 180 l-87 180 -70 0 -71 0 0 -207 c0 -115 3 -279 7
-365 l6 -158 75 0 75 0 -6 186 c-4 102 -3 183 1 180 4 -2 48 -86 97 -186 l90
-182 70 7 c39 4 72 9 74 11 4 4 -12 382 -26 622 l-6 102 -51 -1 c-28 -1 -61
-4 -73 -6z"/>
<path d="M5305 3246 c-41 -18 -65 -48 -75 -92 -12 -53 -2 -90 34 -129 85 -90
236 -29 236 95 0 103 -101 168 -195 126z"/>
<path d="M6732 3230 c-89 -54 -78 -193 18 -243 88 -45 200 25 200 126 0 110
-122 175 -218 117z"/>
<path d="M5284 2611 c-60 -36 -81 -127 -44 -188 39 -65 105 -85 174 -54 141
62 99 261 -54 261 -26 0 -58 -8 -76 -19z"/>
<path d="M6733 2600 c-41 -25 -63 -68 -63 -124 0 -113 146 -173 234 -97 24 20
46 72 46 107 0 40 -30 94 -64 115 -41 25 -112 25 -153 -1z"/>
</g>
</svg>
